<svg width="18" height="16" viewBox="0 0 18 16" fill="none" xmlns="http://www.w3.org/2000/svg">
<path d="M15.665 14.8317C16.1071 14.8317 16.531 14.6561 16.8435 14.3436C17.1561 14.031 17.3317 13.6071 17.3317 13.165V4.83171C17.3317 4.38968 17.1561 3.96576 16.8435 3.65319C16.531 3.34063 16.1071 3.16504 15.665 3.16504H9.08171C8.80297 3.16777 8.52799 3.10055 8.28196 2.96952C8.03592 2.8385 7.82667 2.64785 7.67337 2.41504L6.99837 1.41504C6.84661 1.1846 6.64002 0.995438 6.39712 0.864536C6.15423 0.733634 5.88263 0.665084 5.60671 0.665039H2.33171C1.88968 0.665039 1.46575 0.840634 1.15319 1.15319C0.840634 1.46576 0.665039 1.88968 0.665039 2.33171V13.165C0.665039 13.6071 0.840634 14.031 1.15319 14.3436C1.46575 14.6561 1.88968 14.8317 2.33171 14.8317H15.665Z" stroke="currentColor" stroke-width="1.33" stroke-linecap="round" stroke-linejoin="round"/>
</svg>
