<svg width="14" height="14" viewBox="0 0 14 14" fill="none" xmlns="http://www.w3.org/2000/svg">
<path d="M0.665039 6.66504C0.665039 7.85173 1.01693 9.01177 1.67622 9.99846C2.33551 10.9852 3.27258 11.7542 4.36894 12.2083C5.4653 12.6624 6.6717 12.7813 7.83558 12.5498C8.99947 12.3182 10.0686 11.7468 10.9077 10.9077C11.7468 10.0686 12.3182 8.99947 12.5498 7.83558C12.7813 6.6717 12.6624 5.4653 12.2083 4.36894C11.7542 3.27258 10.9852 2.33551 9.99846 1.67622C9.01177 1.01693 7.85173 0.665039 6.66504 0.665039C4.98767 0.671349 3.37769 1.32585 2.17171 2.49171L0.665039 3.99837M0.665039 3.99837V0.665039M0.665039 3.99837H3.99837M6.66504 3.33171V6.66504L9.33171 7.99837" stroke="white" stroke-width="1.33" stroke-linecap="round" stroke-linejoin="round"/>
</svg>
