<svg width="18" height="18" viewBox="0 0 18 18" fill="none" xmlns="http://www.w3.org/2000/svg">
<path d="M12.5317 5.46505L11.0284 9.97421C10.9466 10.2197 10.8087 10.4428 10.6257 10.6257C10.4428 10.8087 10.2197 10.9466 9.97421 11.0284L5.46505 12.5317L6.96838 8.02255C7.0502 7.77706 7.18805 7.554 7.37103 7.37103C7.554 7.18805 7.77706 7.0502 8.02255 6.96838L12.5317 5.46505Z" stroke="currentColor" stroke-width="1.33" stroke-linecap="round" stroke-linejoin="round"/>
<path d="M8.99837 17.3317C13.6007 17.3317 17.3317 13.6007 17.3317 8.99837C17.3317 4.396 13.6007 0.665039 8.99837 0.665039C4.396 0.665039 0.665039 4.396 0.665039 8.99837C0.665039 13.6007 4.396 17.3317 8.99837 17.3317Z" stroke="currentColor" stroke-width="1.33" stroke-linecap="round" stroke-linejoin="round"/>
</svg>
