<svg width="18" height="18" viewBox="0 0 18 18" fill="none" xmlns="http://www.w3.org/2000/svg">
<path d="M0.665039 16.4984C0.665039 13.9984 2.20671 12.0317 4.89837 11.4984C6.91504 11.0984 8.99837 9.83171 9.83171 8.99837M8.16522 15.665C6.70194 15.6695 5.29044 15.1238 4.21066 14.1362C3.13088 13.1486 2.4617 11.7913 2.33584 10.3335C2.20998 8.8756 2.63663 7.42367 3.53118 6.26566C4.42573 5.10764 5.72283 4.32812 7.16523 4.08171C11.9152 3.16504 13.1652 2.73171 14.8319 0.665039C15.6652 2.33171 16.4986 4.14837 16.4986 7.33171C16.4986 11.915 12.5152 15.665 8.16522 15.665Z" stroke="currentColor" stroke-width="1.33" stroke-linecap="round" stroke-linejoin="round"/>
</svg>
