<svg width="18" height="15" viewBox="0 0 18 15" fill="none" xmlns="http://www.w3.org/2000/svg">
<path d="M11.0817 0.665039H6.91504L4.83171 3.16504H2.33171C1.88968 3.16504 1.46575 3.34063 1.15319 3.65319C0.840634 3.96575 0.665039 4.38968 0.665039 4.83171V12.3317C0.665039 12.7737 0.840634 13.1977 1.15319 13.5102C1.46575 13.8228 1.88968 13.9984 2.33171 13.9984H15.665C16.1071 13.9984 16.531 13.8228 16.8435 13.5102C17.1561 13.1977 17.3317 12.7737 17.3317 12.3317V4.83171C17.3317 4.38968 17.1561 3.96575 16.8435 3.65319C16.531 3.34063 16.1071 3.16504 15.665 3.16504H13.165L11.0817 0.665039Z" stroke="currentColor" stroke-width="1.33" stroke-linecap="round" stroke-linejoin="round"/>
<path d="M8.99837 10.665C10.3791 10.665 11.4984 9.54575 11.4984 8.16504C11.4984 6.78433 10.3791 5.66504 8.99837 5.66504C7.61766 5.66504 6.49837 6.78433 6.49837 8.16504C6.49837 9.54575 7.61766 10.665 8.99837 10.665Z" stroke="currentColor" stroke-width="1.33" stroke-linecap="round" stroke-linejoin="round"/>
</svg>
