<svg width="16" height="18" viewBox="0 0 16 18" fill="none" xmlns="http://www.w3.org/2000/svg">
<path d="M0.665039 3.99837L3.04004 0.665039H12.54L14.915 3.99837M0.665039 3.99837V15.665C0.665039 16.1071 0.831854 16.531 1.12879 16.8435C1.42572 17.1561 1.82845 17.3317 2.24837 17.3317H13.3317C13.7516 17.3317 14.1544 17.1561 14.4513 16.8435C14.7482 16.531 14.915 16.1071 14.915 15.665V3.99837M0.665039 3.99837H14.915M10.9567 7.33171C10.9567 8.21576 10.6231 9.06361 10.0292 9.68873C9.43535 10.3138 8.62989 10.665 7.79004 10.665C6.95019 10.665 6.14473 10.3138 5.55087 9.68873C4.957 9.06361 4.62337 8.21576 4.62337 7.33171" stroke="currentColor" stroke-width="1.33" stroke-linecap="round" stroke-linejoin="round"/>
</svg>
