<svg width="18" height="18" viewBox="0 0 18 18" fill="none" xmlns="http://www.w3.org/2000/svg">
<path d="M10.165 0.665243H3.99837C3.55634 0.665243 3.13242 0.840837 2.81986 1.1534C2.5073 1.46596 2.33171 1.88988 2.33171 2.33191V15.6652C2.33171 16.1073 2.5073 16.5312 2.81986 16.8438C3.13242 17.1563 3.55634 17.3319 3.99837 17.3319H13.9984C14.4404 17.3319 14.8643 17.1563 15.1769 16.8438C15.4894 16.5312 15.665 16.1073 15.665 15.6652V9.49858M0.665039 3.99858H3.99837M0.665039 7.33191H3.99837M0.665039 10.6652H3.99837M0.665039 13.9986H3.99837M16.8134 3.68683C17.1453 3.35487 17.3318 2.90463 17.3318 2.43516C17.3318 1.9657 17.1453 1.51546 16.8134 1.1835C16.4814 0.851534 16.0312 0.665039 15.5617 0.665039C15.0922 0.665039 14.642 0.851534 14.31 1.1835L10.135 5.36016C9.93689 5.55818 9.79187 5.80294 9.71335 6.07183L9.01585 8.4635C8.99494 8.5352 8.99368 8.61121 9.01222 8.68357C9.03076 8.75593 9.06841 8.82197 9.12122 8.87479C9.17404 8.92761 9.24009 8.96526 9.31244 8.98379C9.3848 9.00233 9.46081 9.00108 9.53252 8.98016L11.9242 8.28266C12.1931 8.20415 12.4378 8.05912 12.6359 7.861L16.8134 3.68683Z" stroke="currentColor" stroke-width="1.33" stroke-linecap="round" stroke-linejoin="round"/>
</svg>
