<svg width="15" height="18" viewBox="0 0 15 18" fill="none" xmlns="http://www.w3.org/2000/svg">
<path d="M8.99837 0.665039V3.99837C8.99837 4.4404 9.17397 4.86432 9.48653 5.17688C9.79909 5.48944 10.223 5.66504 10.665 5.66504H13.9984M13.9984 13.1651L12.9184 12.0851C12.5417 11.7085 12.031 11.4969 11.4984 11.4969C10.9658 11.4969 10.455 11.7085 10.0784 12.0851L4.83171 17.3317M9.83171 0.665039H2.33171C1.88968 0.665039 1.46575 0.840634 1.15319 1.15319C0.840634 1.46575 0.665039 1.88968 0.665039 2.33171V15.665C0.665039 16.1071 0.840634 16.531 1.15319 16.8435C1.46575 17.1561 1.88968 17.3317 2.33171 17.3317H12.3317C12.7737 17.3317 13.1977 17.1561 13.5102 16.8435C13.8228 16.531 13.9984 16.1071 13.9984 15.665V4.83171L9.83171 0.665039ZM7.33171 8.99837C7.33171 9.91885 6.58551 10.665 5.66504 10.665C4.74456 10.665 3.99837 9.91885 3.99837 8.99837C3.99837 8.0779 4.74456 7.33171 5.66504 7.33171C6.58551 7.33171 7.33171 8.0779 7.33171 8.99837Z" stroke="currentColor" stroke-width="1.33" stroke-linecap="round" stroke-linejoin="round"/>
</svg>
